<svg width="50" height="50" viewBox="0 0 50 50" fill="none" xmlns="http://www.w3.org/2000/svg">
<path d="M27.2579 0.890553L27.2578 0.890535C27.0226 0.756508 26.7595 0.657785 26.4727 0.565305C26.3735 0.533295 26.2677 0.500997 26.1593 0.467899C25.9861 0.415003 25.8062 0.360062 25.6354 0.300977H25.6332H25.6307H25.6282H25.6257H25.6232H25.6208H25.6183H25.6158H25.6133H25.6109H25.6084H25.6059H25.6034H25.6009H25.5985H25.596H25.5935H25.591H25.5885H25.5861H25.5836H25.5811H25.5786H25.5762H25.5737H25.5712H25.5687H25.5662H25.5638H25.5613H25.5588H25.5563H25.5538H25.5514H25.5489H25.5464H25.5439H25.5415H25.539H25.5365H25.534H25.5315H25.5291H25.5266H25.5241H25.5216H25.5191H25.5167H25.5142H25.5117H25.5092H25.5067H25.5043H25.5018H25.4993H25.4968H25.4944H25.4919H25.4894H25.4869H25.4844H25.482H25.4795H25.477H25.4745H25.472H25.4696H25.4671H25.4646H25.4621H25.4596H25.4572H25.4547H25.4522H25.4497H25.4472H25.4448H25.4423H25.4398H25.4373H25.4349H25.4324H25.4299H25.4274H25.4249H25.4225H25.42H25.4175H25.415H25.4125H25.4101H25.4076H25.4051H25.4026H25.4001H25.3977H25.3952H25.3927H25.3902H25.3877H25.3853H25.3828H25.3803H25.3778H25.3753H25.3729H25.3704H25.3679H25.3654H25.3629H25.3605H25.358H25.3555H25.353H25.3505H25.3481H25.3456H25.3431H25.3406H25.3381H25.3357H25.3332H25.3307H25.3282H25.3257H25.3233H25.3208H25.3183H25.3158H25.3133H25.3109H25.3084H25.3059H25.3034H25.3009H25.2985H25.296H25.2935H25.291H25.2885H25.2861H25.2836H25.2811H25.2786H25.2761H25.2737H25.2712H25.2687H25.2662H25.2637H25.2613H25.2588H25.2563H25.2538H25.2513H25.2489H25.2464H25.2439H25.2414H25.2389H25.2365H25.234H25.2315H25.229H25.2265H25.2241H25.2216H25.2191H25.2166H25.2141H25.2117H25.2092H25.2067H25.2042H25.2017H25.1993H25.1968H25.1943H25.1918H25.1893H25.1869H25.1844H25.1819H25.1794H25.1769H25.1745H25.172H25.1695H25.167H25.1645H25.162H25.1596H25.1571H25.1546H25.1521H25.1496H25.1472H25.1447H25.1422H25.1397H25.1372H25.1348H25.1323H25.1298H25.1273H25.1248H25.1224H25.1199H25.1174H25.1149H25.1124H25.11H25.1075H25.105H25.1025H25.1H25.0976H25.0951H25.0926H25.0901H25.0876H25.0852H25.0827H25.0802H25.0777H25.0752H25.0728H25.0703H25.0678H25.0653H25.0628H25.0604H25.0579H25.0554H25.0529H25.0504H25.0479H25.0455H25.043H25.0405H25.038H25.0355H25.0331H25.0306H25.0281H25.0256H25.0231H25.0207H25.0182H25.0157H25.0132H25.0107H25.0083H25.0058H25.0033H25.0008H24.9983H24.9959H24.9934H24.9909H24.9884H24.9859H24.9835H24.981H24.9785H24.976H24.9735H24.9711H24.9686H24.9661H24.9636H24.9611H24.9587H24.9562H24.9537H24.9512H24.9487H24.9462H24.9438H24.9413H24.9388H24.9363H24.9338H24.9314H24.9289H24.9264H24.9239H24.9214H24.919H24.9165H24.914H24.9115H24.909H24.9066H24.9041H24.9016H24.8991H24.8966H24.8942H24.8917H24.8892H24.8867H24.8842H24.8818H24.8793H24.8768H24.8743H24.8718H24.8694H24.8669H24.8644H24.8619H24.8594H24.857H24.8545H24.852H24.8495H24.847H24.8446H24.8421H24.8396H24.8371H24.8346H24.8322H24.8297H24.8272H24.8247H24.8222H24.8198H24.8173H24.8148H24.8123H24.8098H24.8074H24.8049H24.8024H24.7999H24.7974H24.795H24.7925H24.79H24.7875H24.785H24.7826H24.7801H24.7776H24.7751H24.7726H24.7702H24.7677H24.7652H24.7627H24.7602H24.7578H24.7553H24.7528H24.7503H24.7478H24.7454H24.7429H24.7404H24.7379H24.7354H24.733H24.7305H24.728H24.7255H24.723H24.7206H24.7181H24.7156H24.7131H24.7106H24.7082H24.7057H24.7032H24.7007H24.6982H24.6958H24.6933H24.6908H24.6883H24.6858H24.6834H24.6809H24.6784H24.6759H24.6734H24.671H24.6685H24.666H24.6635H24.661H24.6586H24.6561H24.6536H24.6511H24.6486H24.6462H24.6437H24.6412H24.6387H24.6363H24.6338H24.6313H24.6288H24.6263H24.6239H24.6214H24.6189H24.6164H24.6139H24.6115H24.609H24.6065H24.604H24.6015H24.5991H24.5966H24.5941H24.5916H24.5891H24.5867H24.5842H24.5817H24.5792H24.5768H24.5743H24.5718H24.5693H24.5668H24.5644H24.5619H24.5594H24.5569H24.5544H24.552H24.5495H24.547H24.5445H24.542H24.5396H24.5371H24.5346H24.5321H24.5297H24.5272H24.5247H24.5222H24.5197H24.5173H24.5148H24.5123H24.5098H24.5073H24.5049H24.5024H24.4999H24.4974H24.495H24.4925H24.49H24.4875H24.485H24.4826H24.4819C24.475 0.304455 24.4665 0.308596 24.456 0.313669C24.4205 0.330722 24.3647 0.355951 24.2976 0.369873M27.2579 0.890553L24.2364 0.0761719M27.2579 0.890553C28.1277 1.38608 28.7372 2.01532 29.1225 2.76133C29.5087 3.50908 29.6788 4.39199 29.6407 5.40673L29.6323 5.63168M27.2579 0.890553L29.6323 5.63168M24.2976 0.369873C24.2974 0.369909 24.2972 0.369946 24.2971 0.369982L24.2364 0.0761719M24.2976 0.369873C24.2978 0.369836 24.2979 0.369799 24.2981 0.369762L24.2364 0.0761719M24.2976 0.369873C23.0969 0.622226 22.1538 1.17331 21.502 1.95303C20.8502 2.73281 20.4737 3.76046 20.4396 4.99363M24.2364 0.0761719C21.7218 0.604492 20.211 2.40332 20.1397 4.98535M20.4396 4.99363C20.4396 4.99347 20.4396 4.99331 20.4396 4.99316L20.1397 4.98535M20.4396 4.99363C20.4355 5.15061 20.4074 5.31801 20.2902 5.4575C20.1803 5.58833 20.0275 5.6495 19.9014 5.69223M20.4396 4.99363L20.1397 4.98535M20.1397 4.98535L19.9014 5.69223M19.9014 5.69223L19.8048 5.4082L19.901 5.69235C19.9011 5.69231 19.9013 5.69227 19.9014 5.69223ZM19.9014 5.69223C18.6437 6.11993 17.3919 6.55151 16.1629 7.03496L19.9014 5.69223ZM29.6323 5.63168L29.8459 5.70266M29.6323 5.63168L29.8459 5.70266M29.8459 5.70266C30.0382 5.76657 30.229 5.82756 30.4183 5.8881C30.8536 6.02732 31.2814 6.16413 31.7039 6.32843L31.7042 6.32855M29.8459 5.70266L31.7042 6.32855M31.7042 6.32855C32.4241 6.6076 33.1361 6.90909 33.8272 7.24359C34.4868 7.56328 34.7049 8.21598 34.4269 8.80683L34.4268 8.807M31.7042 6.32855L34.4268 8.807M34.4268 8.807C34.283 9.11312 34.051 9.30641 33.7746 9.39463C33.4943 9.4841 33.149 9.47096 32.782 9.32327L32.67 9.60156M34.4268 8.807L32.67 9.60156M32.67 9.60156L32.782 9.32326C32.0552 9.0307 31.3146 8.75721 30.5787 8.48547C30.1411 8.32389 29.7052 8.16294 29.2749 7.99896C29.0833 7.92586 28.8894 7.89486 28.69 7.94245C28.4949 7.98899 28.3331 8.10181 28.187 8.24049L28.1867 8.24077M32.67 9.60156L28.1867 8.24077M28.1867 8.24077C26.3752 9.9662 23.5759 9.92384 21.7974 8.14252L21.7972 8.14236M28.1867 8.24077L21.7972 8.14236M21.7972 8.14236C21.6631 8.00829 21.511 7.89596 21.3256 7.8443M21.7972 8.14236L21.3256 7.8443M21.3256 7.8443C21.1352 7.79127 20.9465 7.81221 20.7589 7.87782M21.3256 7.8443L20.7589 7.87782M20.7589 7.87782C20.3701 8.01321 19.9768 8.14586 19.5818 8.27907C18.7922 8.54535 17.9959 8.81391 17.2155 9.11127C16.78 9.27694 16.3787 9.2555 16.0776 9.10956C15.781 8.9658 15.5539 8.6887 15.4777 8.27918L20.7589 7.87782ZM22.7636 4.90804C22.767 6.15087 23.7727 7.15447 25.018 7.16619V7.1662C26.2868 7.17742 27.322 6.16306 27.3187 4.89764V4.89762C27.3153 3.66363 26.2976 2.64194 25.0644 2.63068L25.0643 2.63068C23.8097 2.61942 22.7602 3.65571 22.7636 4.90804ZM15.4777 8.2791C15.382 7.7639 15.6319 7.24437 16.1627 7.03504L15.4777 8.2791Z" fill="black" stroke="white" stroke-width="0.6"/>
<path d="M5.18134 20.3612C5.23075 20.3634 5.28726 20.3627 5.3421 20.3621C5.36773 20.3618 5.39299 20.3615 5.41699 20.3615H5.63343L5.70169 20.1561C5.76635 19.9615 5.82797 19.7689 5.88907 19.5779C6.02811 19.1432 6.16443 18.7171 6.3276 18.2958C6.60663 17.576 6.90813 16.8649 7.24269 16.1736C7.56875 15.5007 8.24662 15.2861 8.84004 15.5894L8.84025 15.5895C9.39837 15.8741 9.60742 16.5081 9.32125 17.2201L9.32123 17.2202C9.02948 17.9465 8.75607 18.6861 8.48432 19.4212C8.32247 19.859 8.16121 20.2953 7.99701 20.7261C7.92376 20.9181 7.89313 21.1124 7.94111 21.3118C7.98802 21.5068 8.1011 21.6683 8.24 21.8135C9.96315 23.6191 9.92093 26.427 8.14258 28.2017C8.00859 28.3351 7.89599 28.4868 7.84397 28.6722C7.79049 28.8628 7.81117 29.0519 7.8769 29.2404L7.87695 29.2405C8.02015 29.6503 8.16088 30.064 8.30206 30.4789C8.56864 31.2625 8.83681 32.0507 9.12614 32.8265L9.12615 32.8265C9.27837 33.2345 9.25572 33.6171 9.11349 33.9111C8.97279 34.2019 8.70465 34.429 8.31439 34.5168C7.79076 34.6339 7.2546 34.3889 7.03573 33.8367C6.54955 32.6101 6.12012 31.3579 5.69119 30.0995L5.69113 30.0993C5.64921 29.9765 5.58944 29.8236 5.46052 29.713C5.32168 29.5938 5.15376 29.5642 4.99417 29.5595L4.99386 29.5595C3.75937 29.5244 2.74197 29.1558 1.96765 28.5094C1.19314 27.8628 0.640472 26.9203 0.367128 25.7007C0.353202 25.6375 0.330145 25.5844 0.31356 25.5487C0.308047 25.5368 0.303655 25.5276 0.3 25.52V24.9513V24.9488V24.9463V24.9438V24.9413V24.9388V24.9364V24.9339V24.9314V24.9289V24.9264V24.924V24.9215V24.919V24.9165V24.914V24.9115V24.9091V24.9066V24.9041V24.9016V24.8991V24.8967V24.8942V24.8917V24.8892V24.8867V24.8842V24.8818V24.8793V24.8768V24.8743V24.8718V24.8694V24.8669V24.8644V24.8619V24.8594V24.8569V24.8545V24.852V24.8495V24.847V24.8445V24.8421V24.8396V24.8371V24.8346V24.8321V24.8297V24.8272V24.8247V24.8222V24.8197V24.8172V24.8148V24.8123V24.8098V24.8073V24.8048V24.8024V24.7999V24.7974V24.7949V24.7924V24.79V24.7875V24.785V24.7825V24.78V24.7775V24.7751V24.7726V24.7701V24.7676V24.7651V24.7627V24.7602V24.7577V24.7552V24.7527V24.7503V24.7478V24.7453V24.7428V24.7403V24.7379V24.7354V24.7329V24.7304V24.7279V24.7254V24.723V24.7205V24.718V24.7155V24.713V24.7106V24.7081V24.7056V24.7031V24.7006V24.6982V24.6957V24.6932V24.6907V24.6882V24.6858V24.6833V24.6808V24.6783V24.6758V24.6734V24.6709V24.6684V24.6659V24.6634V24.661V24.6585V24.656V24.6535V24.651V24.6486V24.6461V24.6436V24.6411V24.6386V24.6362V24.6337V24.6312V24.6287V24.6262V24.6238V24.6213V24.6188V24.6163V24.6138V24.6114V24.6089V24.6064V24.6039V24.6014V24.599V24.5965V24.594V24.5915V24.589V24.5866V24.5841V24.5816V24.5791V24.5766V24.5742V24.5717V24.5692V24.5667V24.5642V24.5618V24.5593V24.5568V24.5543V24.5518V24.5494V24.5469V24.5444V24.5419V24.5394V24.537V24.5345V24.532V24.5295V24.527V24.5246V24.5221V24.5196V24.5171V24.5146V24.5122V24.5097V24.5072V24.5047V24.5022V24.4998V24.4973V24.4948V24.4923V24.4899V24.4874V24.4849V24.4824V24.4799V24.4775V24.475V24.4725V24.47V24.4675V24.4651V24.4626V24.4601V24.4576V24.4551V24.4527V24.4502V24.4477V24.4452V24.4428V24.4403V24.4378V24.4353V24.4328V24.4304V24.4279V24.4254V24.4229V24.4204V24.418V24.4155V24.413V24.4105V24.4081V24.4056V24.4031V24.4006V24.3981V24.3957V24.3932V24.3907V24.3882V24.3857V24.3833V24.3808V24.3783V24.3764C0.300373 24.3756 0.30075 24.3747 0.301133 24.3739C0.306927 24.3608 0.313891 24.3452 0.323266 24.3232C0.341278 24.2809 0.365041 24.2212 0.378992 24.1523L0.379157 24.1515C0.847485 21.8052 2.80295 20.2622 5.18134 20.3612ZM5.18134 20.3612C5.18113 20.3612 5.18092 20.3612 5.18071 20.3612L5.19434 20.0615M5.18134 20.3612C5.1815 20.3612 5.18167 20.3612 5.18183 20.3612L5.19434 20.0615M5.19434 20.0615C2.66699 19.956 0.582031 21.6025 0.0849609 24.0927C0.0744897 24.1444 0.052615 24.1939 0.0308001 24.2433C0.0200634 24.2676 0.00934111 24.2919 0 24.3164V25.5869C0.00799835 25.6056 0.0169658 25.6241 0.0259254 25.6426C0.045408 25.6827 0.0648537 25.7228 0.0742188 25.7656C0.644531 28.3115 2.40332 29.7861 4.98535 29.8593C5.25098 29.8671 5.3252 29.956 5.40723 30.1962C5.83594 31.4541 6.26758 32.7128 6.75684 33.9472C7.0332 34.6445 7.7207 34.957 8.37988 34.8095C9.33203 34.5957 9.76172 33.6718 9.40723 32.7216C9.11927 31.9495 8.85376 31.1691 8.58818 30.3884C8.44666 29.9725 8.30512 29.5564 8.16016 29.1416C8.05762 28.8476 8.125 28.6425 8.35449 28.414C10.2471 26.5253 10.2939 23.5312 8.45703 21.6064C8.2168 21.3554 8.15918 21.1425 8.27734 20.833C8.44391 20.3959 8.60608 19.9571 8.76824 19.5184C9.03865 18.7869 9.30902 18.0554 9.59961 17.332C9.92969 16.5107 9.7041 15.6933 8.97656 15.3222L5.19434 20.0615ZM4.87878 27.2365C6.13896 27.2534 7.17153 26.2177 7.16816 24.9523C7.16428 23.7077 6.17128 22.6994 4.92719 22.6814L4.92691 22.6814C3.67497 22.6645 2.62729 23.7076 2.63067 24.9627L2.63067 24.9627C2.63404 26.1946 3.6464 27.2196 4.8787 27.2365L4.87878 27.2365Z" fill="black" stroke="white" stroke-width="0.6"/>
<path d="M49.699 25.6459V24.4831C49.6954 24.4757 49.6911 24.4669 49.6858 24.4557C49.6691 24.4203 49.6452 24.3664 49.631 24.3025L49.6304 24.3001L49.6304 24.3001C49.3723 23.0923 48.8212 22.1494 48.0433 21.4997C47.2654 20.85 46.2406 20.4766 45.0054 20.4426L45.0048 20.4426C44.8454 20.4379 44.6778 20.4081 44.5391 20.2892C44.4101 20.1787 44.35 20.0261 44.3079 19.9027L44.3077 19.9022C43.8858 18.6589 43.4611 17.4218 42.9844 16.2075L49.699 25.6459ZM49.699 25.6459C49.6744 25.7343 49.6514 25.8201 49.6288 25.9041C49.5768 26.0983 49.5271 26.2835 49.4652 26.4713C48.7938 28.5001 47.0656 29.6585 44.5818 29.6445L44.364 29.6432L44.2954 29.8499C44.2312 30.0429 44.1699 30.2346 44.109 30.4251C43.9707 30.8575 43.8344 31.2836 43.6713 31.7054L43.6713 31.7056C43.3992 32.4106 43.1044 33.1073 42.7793 33.7864C42.6028 34.1539 42.3438 34.3825 42.0673 34.4849C41.792 34.5867 41.4753 34.5728 41.1599 34.4117L41.1598 34.4116C40.862 34.2596 40.6795 34.0256 40.6003 33.7471C40.5197 33.4637 40.5412 33.1143 40.694 32.738L40.694 32.7379C40.9974 31.99 41.2772 31.2264 41.5549 30.4683C41.7073 30.0521 41.8592 29.6376 42.014 29.2283L42.0141 29.2281C42.0798 29.0539 42.1084 28.8746 42.0652 28.6894C42.0228 28.5077 41.9198 28.3576 41.7935 28.2249L41.7934 28.2249C40.0211 26.3636 40.0665 23.6033 41.8767 21.7479C41.8767 21.7478 41.8768 21.7478 41.8768 21.7477L41.6621 21.5382C41.7978 21.3995 41.8906 21.0909 41.8349 20.9142C41.4551 19.7091 41.0586 18.5069 40.6094 17.3263M49.699 25.6459L40.6094 17.3263M40.6094 17.3263L40.8898 17.2198M40.6094 17.3263L40.8898 17.2196C40.8898 17.2197 40.8898 17.2197 40.8898 17.2198M40.8898 17.2198C40.7238 16.7826 40.7446 16.3808 40.8899 16.0796C41.033 15.7831 41.3095 15.5557 41.7203 15.4786L40.8898 17.2198ZM41.7204 15.4786C42.2423 15.3808 42.7582 15.6318 42.9844 16.2074L41.7204 15.4786ZM45.085 22.7626C44.0612 22.7683 43.2003 23.4559 42.925 24.3944L45.0869 23.0626L45.0853 22.7626C45.0852 22.7626 45.0851 22.7626 45.085 22.7626Z" fill="black" stroke="white" stroke-width="0.6"/>
<path d="M24.3556 49.698H25.501C25.5304 49.6808 25.5825 49.6528 25.6482 49.6385L25.6495 49.6382C26.8826 49.3757 27.8365 48.8267 28.4913 48.0508C29.1459 47.2751 29.5202 46.2509 29.5566 45.0049L29.5566 45.0047C29.5613 44.8471 29.5903 44.68 29.7077 44.541C29.8177 44.4107 29.9701 44.3495 30.0958 44.3068L30.1924 44.5908L30.0958 44.3068C31.3541 43.8789 32.6064 43.4494 33.8341 42.9642L33.8344 42.964C34.3677 42.7539 34.6153 42.2356 34.5195 41.7199C34.4434 41.3106 34.2162 41.034 33.9194 40.8906C33.6178 40.745 33.2158 40.7239 32.7795 40.8898L32.7793 40.8898C31.5909 41.341 30.3834 41.7395 29.1764 42.121L29.1761 42.1211C29.008 42.174 28.8207 42.1496 28.6778 42.1088C28.5312 42.067 28.3695 41.9905 28.253 41.8774L24.3556 49.698ZM24.3556 49.698C24.2261 49.6584 24.0907 49.6212 23.9606 49.5854C23.878 49.5627 23.7975 49.5405 23.722 49.5188C23.5017 49.4552 23.2985 49.3881 23.112 49.2988C22.1217 48.8239 21.4232 48.1902 20.9765 47.4145C20.5289 46.6371 20.322 45.6957 20.3517 44.5871L20.3576 44.3647L20.1465 44.2944C19.9528 44.23 19.7601 44.1683 19.5684 44.107C19.1388 43.9696 18.7144 43.8339 18.295 43.6714L24.3556 49.698ZM16.1716 42.7563L16.1717 42.7563C16.8629 43.0908 17.5749 43.3923 18.2949 43.6714L16.1716 42.7563ZM16.1716 42.7563C15.5121 42.4374 15.2935 41.7829 15.5711 41.1944L15.5711 41.1944M16.1716 42.7563L15.5711 41.1944M15.5711 41.1944C15.847 40.6095 16.4924 40.3853 17.2172 40.6768L17.2173 40.6768M15.5711 41.1944L17.2173 40.6768M17.2173 40.6768C17.9701 40.9792 18.7368 41.2612 19.4986 41.5415M17.2173 40.6768L19.4986 41.5415M19.4986 41.5415C19.9253 41.6985 20.3505 41.8549 20.7708 42.014M19.4986 41.5415L20.7708 42.014M20.7708 42.014L20.8769 41.7337M20.7708 42.014L20.8769 41.7337M20.8769 41.7337L20.7705 42.0139C20.9458 42.0804 21.1259 42.1087 21.3114 42.0649M20.8769 41.7337L21.3114 42.0649M21.3114 42.0649C21.4932 42.022 21.643 41.9184 21.7752 41.7925M21.3114 42.0649L21.7752 41.7925M21.7752 41.7925C23.6363 40.0213 26.3853 40.0651 28.2529 41.8773L21.7752 41.7925ZM24.9502 42.8328L24.9494 42.8328L24.9512 43.1328V42.8328H24.9508L24.9502 42.8328Z" fill="black" stroke="white" stroke-width="0.6"/>
<rect x="14" y="14" width="22" height="21" rx="2" stroke="black" stroke-width="2"/>
</svg>
