<svg width="45" height="42" viewBox="0 0 45 42" fill="none" xmlns="http://www.w3.org/2000/svg">
<path d="M36.587 34.7211H34.7839C32.8859 34.7211 31.0829 35.3415 29.7543 36.4622L25.6974 39.8443C23.8468 41.3852 20.8338 41.3852 18.9833 39.8443L14.9264 36.4622C13.5978 35.3415 11.771 34.7211 9.89675 34.7211H8.1174C4.1791 34.7211 1 32.0594 1 28.7774V6.94366C1 3.6616 4.1791 1 8.1174 1H36.587C40.5253 1 43.7044 3.6616 43.7044 6.94366V28.7774C43.7044 32.0394 40.5253 34.7211 36.587 34.7211Z" stroke="#292D32" stroke-width="2" stroke-miterlimit="10" stroke-linecap="round" stroke-linejoin="round"/>
<path d="M10.49 15.309C10.49 13.4478 12.2931 11.9268 14.4995 11.9268C16.7058 11.9268 18.5089 13.4478 18.5089 15.309C18.5089 19.0713 12.1744 19.4715 10.7747 23.0538C10.49 23.7942 11.2255 24.5347 12.1507 24.5347H18.5089" stroke="#292D32" stroke-width="2" stroke-linecap="round" stroke-linejoin="round"/>
<path d="M31.9371 24.5147V13.0876C31.9371 12.5673 31.5337 12.1069 30.9406 11.9668C30.3475 11.8267 29.7069 12.0268 29.3748 12.4671C27.6666 14.7886 25.8161 17.4303 24.2028 19.7517C23.9418 20.132 23.9418 20.6323 24.2028 21.0125C24.4638 21.3927 24.962 21.6327 25.5077 21.6327H34.2146" stroke="#292D32" stroke-width="2" stroke-linecap="round" stroke-linejoin="round"/>
</svg>
