<svg width="40" height="38" viewBox="0 0 40 38" fill="none" xmlns="http://www.w3.org/2000/svg">
<path d="M7.52974 20.2684C7.11991 20.2686 6.70965 20.4247 6.39727 20.7371L5.30148 21.8329L5.30139 21.8328L5.29718 21.8374C3.86115 23.3977 6.00374 25.5391 7.56325 24.1034L7.56333 24.1035L7.56772 24.0991L8.66325 23.0036C9.67313 21.9985 8.93921 20.2592 7.52974 20.2684ZM7.52974 20.2684C7.52965 20.2684 7.52956 20.2684 7.52947 20.2684L7.53047 20.4184V20.2684C7.53023 20.2684 7.52998 20.2684 7.52974 20.2684ZM9.87877 24.9909L9.87881 24.9908C10.1811 24.6888 10.5837 24.5221 11.011 24.5221C11.0111 24.5221 11.0112 24.5221 11.0113 24.5221V24.6721C12.2978 24.6699 12.9499 26.2433 12.0383 27.1517L9.87877 24.9909ZM9.87877 24.9909L8.78238 26.0872L8.88845 26.1932L8.78238 26.0872C8.48029 26.3893 8.31337 26.7916 8.31297 27.2189C8.29602 28.0833 9.05164 28.839 9.91579 28.8229C10.4213 28.83 10.8643 28.5784 11.1808 28.2213L12.1442 27.2579L9.87877 24.9909ZM36.5374 3.64949L36.5377 3.64979C40.9541 8.06616 40.9541 15.2526 36.5375 19.6691L35.3709 20.8357L35.3241 20.8825L35.3271 20.9486C35.4222 23.0299 33.646 24.8792 31.6031 24.9102L31.4577 24.9124L31.4554 25.0579C31.4251 27.0262 29.7045 28.7474 27.7356 28.7778L27.5902 28.78L27.588 28.9255C27.5582 30.8744 25.8657 32.5899 23.9156 32.6443L23.7746 32.6482L23.7699 32.7892C23.7155 34.4028 22.9508 35.1518 21.8841 36.1964C21.7743 36.3039 21.6614 36.4145 21.5457 36.5295L21.545 36.5302C19.463 38.627 15.8318 37.6527 15.077 34.8042L15.0382 34.6579L14.8923 34.6979C12.5926 35.3295 10.1909 33.6161 10.057 31.227L10.0489 31.083L9.90467 31.0854C7.7212 31.1223 5.87033 29.1283 6.06007 26.9594L6.07269 26.8151L5.92894 26.7974C2.75815 26.4077 1.42136 22.4056 3.75206 20.1796L3.86698 20.0698L3.75078 19.9614C-0.921824 15.6024 -1.07572 8.16543 3.45835 3.65009L3.45887 3.64957C8.01807 -0.935524 15.5444 -0.708427 19.8872 4.05909L19.9981 4.18083L20.109 4.05909C24.4515 -0.70859 31.9782 -0.935445 36.5374 3.64949ZM16.141 28.7301L16.1408 28.7298C15.4453 28.0371 14.3576 28.1372 13.7413 28.8634L12.7799 29.8249C12.1565 30.4244 12.1565 31.4937 12.78 32.0932C13.405 32.7172 14.4206 32.7169 15.0451 32.0921L16.141 30.9963L16.141 30.9963C16.7658 30.3713 16.7658 29.355 16.141 28.7301ZM17.6609 11.3763L15.2266 8.94195L18.2909 5.8776L18.391 5.77748L18.2968 5.67176C14.8355 1.78654 8.74705 1.53871 5.06006 5.25111C1.35222 8.93389 1.59294 15.0141 5.46962 18.477L5.54998 18.5488L5.64367 18.4955C8.27858 16.9979 11.6194 19.0939 11.3859 22.1327L11.3747 22.2777L11.5193 22.2933C13.2854 22.4841 14.7857 24.0871 14.8662 25.855L14.8729 26.0013L15.0193 25.9981C16.6793 25.9619 18.3368 27.2104 18.7386 28.8524L18.7748 29.0004L18.9223 28.9618C20.1891 28.6305 21.5909 28.9502 22.5937 29.9196L22.6997 30.0221L22.704 30.0179C23.333 30.5396 24.2701 30.5059 24.8593 29.9167C25.4842 29.2918 25.4842 28.2754 24.8593 27.6504L19.2584 22.0496L20.8598 20.4482L26.4606 26.0491C27.0855 26.674 28.1019 26.6742 28.7269 26.0491C29.3517 25.4241 29.3517 24.4078 28.7269 23.7829L28.627 23.8827L28.7269 23.7829L23.126 18.182L24.7273 16.5807L30.3272 22.1805C30.9267 22.804 31.996 22.8039 32.5955 22.1804C33.2193 21.5554 33.2189 20.5398 32.5947 19.9153L32.5947 19.9153L24.8616 12.1821L24.7769 12.0974L24.6755 12.1613C22.4913 13.5391 19.5617 13.2772 17.6609 11.3763L17.5655 11.4718L17.6609 11.3763ZM34.9363 18.0678L34.9364 18.0679L34.9406 18.0633C43.0835 9.22006 30.9736 -2.89807 22.1244 5.24681L22.1243 5.24672L22.1199 5.25111L18.5351 8.83588L18.429 8.94195L18.5351 9.04801L19.2621 9.775C20.5839 11.0968 22.734 11.0966 24.0556 9.77501L24.8563 8.97438L34.1958 18.314C34.2413 18.3594 34.2855 18.4059 34.3285 18.4532L34.4343 18.5698L34.5456 18.4585L34.9363 18.0678ZM19.9442 34.9285L21.0377 33.8349C21.0381 33.8345 21.0385 33.8341 21.0388 33.8338C21.6624 33.2342 21.6623 32.1649 21.0388 31.5653C20.4138 30.9415 19.3981 30.9419 18.7736 31.5665L17.6802 32.66C17.6798 32.6604 17.6794 32.6608 17.679 32.6612C17.0553 33.2607 17.0556 34.3299 17.6788 34.9295C17.9812 35.2313 18.3837 35.3979 18.811 35.3979C19.2388 35.3979 19.6417 35.2309 19.9442 34.9285Z" fill="black" stroke="white" stroke-width="0.3"/>
</svg>
