<svg width="42" height="39" viewBox="0 0 42 39" fill="none" xmlns="http://www.w3.org/2000/svg">
<path d="M40.9074 20.7522C40.77 20.4953 40.5021 20.3348 40.2108 20.3349H39.3847V19.0337C39.3819 15.8671 37.4886 13.0081 34.5742 11.7697C37.059 10.0699 37.6954 6.67768 35.9957 4.19279C34.2959 1.708 30.9037 1.07156 28.4188 2.77128C25.934 4.47109 25.2975 7.86334 26.9973 10.3482C27.3788 10.9061 27.8609 11.3881 28.4188 11.7697C25.5044 13.0082 23.6111 15.8671 23.6083 19.0337V20.3335H22.202C21.7659 20.3335 21.4125 20.687 21.4125 21.1231C21.4125 21.5591 21.7659 21.9126 22.202 21.9126H38.7336L29.1149 36.3053H23.7459V34.3719C23.7412 30.1715 21.1267 26.4163 17.1889 24.9545C20.4562 23.0314 21.5461 18.8237 19.623 15.5564C17.6999 12.289 13.4923 11.1992 10.2249 13.1223C6.95757 15.0453 5.86774 19.253 7.79081 22.5204C8.38229 23.5253 9.21998 24.363 10.2249 24.9545C6.28645 26.4159 3.67113 30.1711 3.66609 34.3719V36.3053H1.78954C1.35349 36.3053 1 36.6588 1 37.0948C1 37.5309 1.35349 37.8843 1.78954 37.8843H29.5372C29.8008 37.8842 30.0472 37.7526 30.1937 37.5334L40.8672 21.5616C41.0286 21.3198 41.044 21.0088 40.9074 20.7522ZM27.6246 7.29076C27.6149 5.15229 29.3406 3.41091 31.4789 3.40122C33.6174 3.39153 35.3588 5.11721 35.3685 7.25559C35.3782 9.39397 33.6525 11.1354 31.5141 11.1451C31.5083 11.1451 31.5024 11.1451 31.4966 11.1451C29.364 11.1478 27.6318 9.42342 27.6246 7.29076ZM37.8055 20.3335H25.1874V19.0337C25.1578 15.5493 27.9586 12.7007 31.443 12.6711C34.9274 12.6416 37.7761 15.4423 37.8056 18.9267C37.8059 18.9624 37.8059 18.9981 37.8056 19.0337L37.8055 20.3335ZM8.42143 19.0702C8.40777 16.1512 10.763 13.7736 13.6821 13.7599C16.6012 13.7461 18.9787 16.1014 18.9925 19.0205C19.0061 21.9396 16.6509 24.3172 13.7318 24.3309C13.7228 24.3309 13.7138 24.331 13.7048 24.331C10.7947 24.3334 8.43141 21.9803 8.42143 19.0702ZM22.1685 36.3053H5.24517V34.3719C5.21115 29.6987 8.97192 25.8827 13.6452 25.8486C18.3185 25.8144 22.1344 29.5753 22.1686 34.2486C22.1688 34.2897 22.1688 34.3308 22.1686 34.3719V36.3053H22.1685Z" fill="black"/>
<path fill-rule="evenodd" clip-rule="evenodd" d="M41.0839 20.6582C41.2551 20.9798 41.2358 21.3695 41.0336 21.6726L30.36 37.6444C30.1763 37.9191 29.8677 38.0842 29.5373 38.0843H1.78954C1.24303 38.0843 0.799999 37.6413 0.799999 37.0947C0.799999 36.5482 1.24303 36.1052 1.78954 36.1052H3.46609V34.3719C3.47107 30.2213 5.97464 26.4969 9.78321 24.9132C8.89968 24.3232 8.15911 23.5404 7.61845 22.6217C5.63935 19.2592 6.76093 14.9289 10.1235 12.9499C13.486 10.9708 17.8163 12.0923 19.7954 15.4549C21.7061 18.7013 20.7267 22.8496 17.6308 24.9134C21.4386 26.4975 23.9413 30.2215 23.9459 34.3717V36.1052H29.008L38.3594 22.1125H22.202C21.6555 22.1125 21.2125 21.6695 21.2125 21.123C21.2125 20.5765 21.6555 20.1335 22.202 20.1335H23.4083V19.0337C23.4111 15.9032 25.2158 13.0659 28.0234 11.7284C27.5639 11.3704 27.1619 10.9431 26.8322 10.4611C25.0701 7.88504 25.7299 4.36832 28.3058 2.60615C30.8819 0.844076 34.3986 1.50386 36.1608 4.07981L35.9957 4.19273C34.2959 1.70794 30.9037 1.07151 28.4188 2.77122C25.934 4.47103 25.2975 7.86329 26.9973 10.3482C27.3349 10.8418 27.7513 11.276 28.2292 11.6339C28.2913 11.6805 28.3546 11.7258 28.4188 11.7697C28.3469 11.8002 28.2757 11.8317 28.2051 11.8642C25.4122 13.1493 23.611 15.9451 23.6083 19.0337V20.3335H22.202C21.7659 20.3335 21.4125 20.687 21.4125 21.123C21.4125 21.5591 21.7659 21.9125 22.202 21.9125H38.7336L29.1149 36.3052H23.7459V34.3719C23.7413 30.256 21.2309 26.5676 17.4251 25.0455C17.3469 25.0142 17.2682 24.9838 17.1889 24.9544C17.2618 24.9115 17.3336 24.8675 17.4043 24.8223C20.5034 22.844 21.5032 18.7508 19.623 15.5563C17.6999 12.289 13.4923 11.1991 10.2249 13.1222C6.95757 15.0453 5.86774 19.2529 7.79081 22.5203C8.33951 23.4526 9.10011 24.2409 10.0096 24.8223C10.0805 24.8676 10.1523 24.9116 10.2249 24.9544C10.1457 24.9838 10.0669 25.0142 9.98873 25.0454C6.18222 26.5672 3.67103 30.2556 3.66609 34.3719V36.3052H1.78954C1.35349 36.3052 0.999999 36.6587 0.999999 37.0947C0.999999 37.5308 1.35349 37.8843 1.78954 37.8843H29.5372C29.8008 37.8842 30.0472 37.7525 30.1937 37.5333L40.8672 21.5616C41.0286 21.3197 41.044 21.0088 40.9074 20.7522C40.77 20.4952 40.5021 20.3347 40.2108 20.3348H39.3847V19.0337C39.3819 15.9452 37.5808 13.1492 34.7879 11.8642C34.7173 11.8317 34.6461 11.8002 34.5742 11.7697C34.6387 11.7256 34.7019 11.6803 34.7639 11.634C37.0905 9.89442 37.6513 6.61314 35.9957 4.19273L36.1608 4.07981C37.8566 6.55894 37.3093 9.90927 34.9697 11.7285C37.7773 13.0659 39.5819 15.9031 39.5847 19.0335V20.1348H40.2107C40.2107 20.1348 40.2107 20.1348 40.2107 20.1348C40.5759 20.1347 40.9117 20.3361 41.0839 20.6582ZM27.8246 7.29002C27.8315 9.31241 29.4741 10.9476 31.4963 10.9451L31.5138 10.9451C33.5414 10.9356 35.1777 9.28416 35.1685 7.25644C35.1593 5.22852 33.5079 3.59197 31.4799 3.60116C29.4519 3.61035 27.8154 5.262 27.8246 7.29002ZM31.5141 11.1451C33.6525 11.1354 35.3782 9.39391 35.3685 7.25553C35.3588 5.11715 33.6174 3.39147 31.4789 3.40116C29.3406 3.41085 27.6149 5.15223 27.6246 7.29071C27.6318 9.42337 29.364 11.1477 31.4966 11.1451H31.5141ZM25.3874 19.032L25.3874 19.0337L25.3874 20.1335H37.6055L37.6056 19.032M37.6056 18.9283C37.577 15.5544 34.8186 12.8424 31.4447 12.871C28.0707 12.8997 25.3587 15.658 25.3874 19.032M37.8055 20.3335H25.1874V19.0337C25.1578 15.5493 27.9586 12.7006 31.443 12.6711C34.9274 12.6415 37.7761 15.4423 37.8056 18.9267C37.8059 18.9623 37.8059 18.998 37.8056 19.0337L37.8055 20.3335ZM8.62143 19.0695C8.63103 21.8693 10.9048 24.1333 13.7046 24.131L13.7309 24.1309C16.5395 24.1176 18.8056 21.8301 18.7925 19.0214C18.7792 16.2128 16.4917 13.9466 13.683 13.9598C10.8744 13.973 8.60828 16.2609 8.62143 19.0695ZM13.7318 24.3309C16.6509 24.3171 19.0061 21.9396 18.9925 19.0205C18.9787 16.1014 16.6012 13.7461 13.6821 13.7598C10.763 13.7736 8.40777 16.1511 8.42143 19.0702C8.43141 21.9803 10.7947 24.3334 13.7048 24.331L13.7318 24.3309ZM22.1686 34.3719C22.1688 34.3308 22.1688 34.2896 22.1686 34.2485C22.1344 29.5753 18.3185 25.8144 13.6452 25.8485C8.97192 25.8826 5.21115 29.6986 5.24516 34.3719V36.3052H22.1685L22.1686 34.3719ZM21.9686 36.1052V34.3705C21.9687 34.3476 21.9688 34.3246 21.9688 34.3017C21.9688 34.2844 21.9687 34.2672 21.9686 34.25C21.9353 29.6872 18.2095 26.0152 13.6466 26.0485C9.08383 26.0818 5.41195 29.8076 5.44516 34.3704L5.44517 34.3719L5.44516 36.1052H21.9686Z" fill="black"/>
<path d="M18.194 7.5005L21.2395 9.07018C21.6278 9.26931 22.1038 9.11591 22.303 8.72773C22.36 8.61649 22.3899 8.49324 22.39 8.36814V3.27384C22.39 1.52956 20.976 0.115601 19.2317 0.115601H12.3512C10.6069 0.115601 9.19295 1.52956 9.19295 3.27384V4.34361C9.19421 6.08732 10.6075 7.5006 12.3512 7.50186L18.194 7.5005ZM10.7721 4.34361V3.27384C10.7721 2.40175 11.4791 1.69467 12.3513 1.69467H19.2332C20.1053 1.69467 20.8124 2.40165 20.8124 3.27384V7.07279L18.7491 6.00893C18.6373 5.95166 18.5137 5.92162 18.3881 5.92143H12.3513C11.4797 5.92143 10.7729 5.21523 10.7721 4.34361Z" fill="black"/>
</svg>
