<svg width="153" height="41" viewBox="0 0 153 41" fill="none" xmlns="http://www.w3.org/2000/svg">
<path d="M21.2305 0C9.57263 0 0.10998 9.07241 0 20.3025V20.5021V41H21.4372C33.0687 40.8938 42.4654 31.7577 42.4654 20.5021C42.4654 9.1786 32.9587 0.00425153 21.2349 0.00425153L21.2305 0Z" fill="url(#paint0_linear_4_3)"/>
<path d="M25.7303 12.3562C24.4589 12.3562 23.4295 13.3501 23.4295 14.5776V16.1534C23.4295 16.1534 23.4295 16.1534 23.4295 16.1576C23.4295 17.3809 22.4001 18.3748 21.1287 18.3748C19.8573 18.3748 18.8279 17.3809 18.8279 16.1534V11.2094C18.8279 9.98192 17.7985 8.98804 16.5272 8.98804C15.2558 8.98804 14.2264 9.98192 14.2264 11.2094V29.2523C14.2264 30.4798 15.2558 31.4737 16.5272 31.4737C17.7985 31.4737 18.8279 30.4798 18.8279 29.2523V25.0389C18.8279 23.8114 19.8573 22.8175 21.1287 22.8175C22.7784 22.8175 23.4295 24.4273 23.4295 25.0389V25.8799C23.4295 27.1074 24.4589 28.1013 25.7303 28.1013C27.0016 28.1013 28.031 27.1074 28.031 25.8799V14.5776C28.031 13.3501 27.0016 12.3562 25.7303 12.3562Z" fill="white"/>
<path d="M150.419 28.797C147.969 28.797 146.639 27.4754 146.639 25.0394V17.8613H144.372C144.215 17.8613 144.111 17.7576 144.111 17.6021V15.84C144.111 15.6845 144.215 15.5808 144.372 15.5808H146.639V11.9529C146.639 11.7974 146.744 11.6937 146.9 11.6937H149.272C149.429 11.6937 149.533 11.7974 149.533 11.9529V15.5808H152.739C152.896 15.5808 153 15.6845 153 15.84V17.6021C153 17.7576 152.896 17.8613 152.739 17.8613H149.533V26.5165H152.739C152.896 26.5165 153 26.6202 153 26.7757V28.5378C153 28.6933 152.896 28.797 152.739 28.797H150.419Z" fill="url(#paint1_linear_4_3)"/>
<path d="M137.327 28.9525C134.016 28.9525 132.035 27.4754 131.774 24.8063C131.748 24.6249 131.852 24.5212 132.009 24.5212H134.303C134.485 24.5212 134.537 24.6249 134.563 24.7545C134.85 26.1538 135.684 26.7239 137.327 26.7239C138.682 26.7239 139.568 26.102 139.568 25.1432C139.568 24.2362 139.021 23.8216 137.639 23.5624L135.789 23.2255C133.26 22.7591 132.061 21.567 132.061 19.3643C132.061 16.9803 133.964 15.4254 136.988 15.4254C139.959 15.4254 141.784 16.8248 142.071 19.2607C142.097 19.4421 141.993 19.5457 141.836 19.5457H139.542C139.36 19.5457 139.282 19.4162 139.256 19.3125C138.995 18.1205 138.317 17.654 136.988 17.654C135.632 17.654 134.902 18.1982 134.902 19.2089C134.902 20.0122 135.267 20.5046 136.675 20.7637L138.656 21.1265C141.524 21.6448 142.41 22.7591 142.41 24.9877C142.41 27.5273 140.585 28.9525 137.327 28.9525Z" fill="url(#paint2_linear_4_3)"/>
<path d="M123.093 28.9525C119.131 28.9525 116.446 26.2316 116.446 22.2149C116.446 18.1723 119.157 15.4254 123.093 15.4254C127.081 15.4254 129.792 18.1723 129.792 22.2149C129.792 26.2316 127.081 28.9525 123.093 28.9525ZM119.391 22.2149C119.391 24.9618 120.773 26.6203 123.093 26.6203C125.413 26.6203 126.847 24.9618 126.847 22.2149C126.847 19.4421 125.439 17.7577 123.093 17.7577C120.773 17.7577 119.391 19.4421 119.391 22.2149Z" fill="url(#paint3_linear_4_3)"/>
<path d="M102.596 28.7971C102.44 28.7971 102.335 28.6935 102.335 28.538V10.3982C102.335 10.2427 102.44 10.139 102.596 10.139H104.968C105.125 10.139 105.229 10.2427 105.229 10.3982V17.4986H105.333C106.246 16.177 107.653 15.4255 109.4 15.4255C112.424 15.4255 114.092 17.4727 114.092 21.3857V28.538C114.092 28.6935 113.988 28.7971 113.831 28.7971H111.459C111.303 28.7971 111.198 28.6935 111.198 28.538V21.3857C111.198 18.9498 110.286 17.8614 108.227 17.8614C106.167 17.8614 105.229 18.9757 105.229 21.3857V28.538C105.229 28.6935 105.125 28.7971 104.968 28.7971H102.596Z" fill="url(#paint4_linear_4_3)"/>
<path d="M93.5903 28.9525C89.4977 28.9525 86.8649 26.3093 86.8649 22.2149C86.8649 18.0686 89.4977 15.4254 93.5903 15.4254C97.3701 15.4254 99.7162 18.0168 99.7162 22.189V22.8886C99.7162 23.0441 99.612 23.1478 99.4555 23.1478H89.8366C90.0451 25.3246 91.3485 26.6203 93.5903 26.6203C95.3629 26.6203 96.4317 25.9465 96.7966 24.8581C96.8488 24.7026 96.927 24.6508 97.0834 24.6508H99.3773C99.5598 24.6508 99.6641 24.7285 99.638 24.8581C99.1688 27.2681 97.0052 28.9525 93.5903 28.9525ZM89.8627 21.0488H96.8748C96.7445 19.0015 95.4933 17.7577 93.5903 17.7577C91.4006 17.7577 90.1233 18.8979 89.8627 21.0488Z" fill="url(#paint5_linear_4_3)"/>
<path d="M77.951 28.797C77.7946 28.797 77.6903 28.6933 77.6903 28.5378V19.3383C77.6903 16.9024 79.0198 15.5808 81.4701 15.5808H85.1717C85.3281 15.5808 85.4324 15.6845 85.4324 15.84V17.7576C85.4324 17.9131 85.3281 18.0167 85.1717 18.0167H80.5838V28.5378C80.5838 28.6933 80.4795 28.797 80.3231 28.797H77.951Z" fill="url(#paint6_linear_4_3)"/>
<path d="M71.7934 28.7971C71.637 28.7971 71.5328 28.6934 71.5328 28.5379V15.8401C71.5328 15.6846 71.637 15.5809 71.7934 15.5809H74.1656C74.322 15.5809 74.4263 15.6846 74.4263 15.8401V28.5379C74.4263 28.6934 74.322 28.7971 74.1656 28.7971H71.7934ZM71.3242 13.0414V10.2427C71.3242 10.0872 71.4285 9.98352 71.5849 9.98352H74.4002C74.5566 9.98352 74.6609 10.0872 74.6609 10.2427V13.0414C74.6609 13.1969 74.5566 13.3005 74.4002 13.3005H71.5849C71.4285 13.3005 71.3242 13.1969 71.3242 13.0414Z" fill="url(#paint7_linear_4_3)"/>
<path d="M65.2739 28.797C65.1175 28.797 65.0132 28.6934 65.0132 28.5379V20.8414H56.3066V28.5379C56.3066 28.6934 56.2023 28.797 56.0459 28.797H53.5695C53.4131 28.797 53.3088 28.6934 53.3088 28.5379V10.9164C53.3088 10.7609 53.4131 10.6572 53.5695 10.6572H56.0459C56.2023 10.6572 56.3066 10.7609 56.3066 10.9164V18.3019H65.0132V10.9164C65.0132 10.7609 65.1175 10.6572 65.2739 10.6572H67.7503C67.9067 10.6572 68.011 10.7609 68.011 10.9164V28.5379C68.011 28.6934 67.9067 28.797 67.7503 28.797H65.2739Z" fill="url(#paint8_linear_4_3)"/>
<defs>
<linearGradient id="paint0_linear_4_3" x1="-27.6445" y1="67.6863" x2="40.9849" y2="-3.3959" gradientUnits="userSpaceOnUse">
<stop offset="0.3" stop-color="#2D4BF4"/>
<stop offset="1" stop-color="#C655F8"/>
</linearGradient>
<linearGradient id="paint1_linear_4_3" x1="46.307" y1="33.7804" x2="81.8457" y2="-52.3441" gradientUnits="userSpaceOnUse">
<stop stop-color="#C655F8"/>
<stop offset="1" stop-color="#2D4BF4"/>
</linearGradient>
<linearGradient id="paint2_linear_4_3" x1="46.3071" y1="33.7805" x2="81.8458" y2="-52.344" gradientUnits="userSpaceOnUse">
<stop stop-color="#C655F8"/>
<stop offset="1" stop-color="#2D4BF4"/>
</linearGradient>
<linearGradient id="paint3_linear_4_3" x1="46.307" y1="33.7805" x2="81.8457" y2="-52.344" gradientUnits="userSpaceOnUse">
<stop stop-color="#C655F8"/>
<stop offset="1" stop-color="#2D4BF4"/>
</linearGradient>
<linearGradient id="paint4_linear_4_3" x1="46.3071" y1="33.7806" x2="81.8457" y2="-52.344" gradientUnits="userSpaceOnUse">
<stop stop-color="#C655F8"/>
<stop offset="1" stop-color="#2D4BF4"/>
</linearGradient>
<linearGradient id="paint5_linear_4_3" x1="46.307" y1="33.7805" x2="81.8457" y2="-52.3441" gradientUnits="userSpaceOnUse">
<stop stop-color="#C655F8"/>
<stop offset="1" stop-color="#2D4BF4"/>
</linearGradient>
<linearGradient id="paint6_linear_4_3" x1="46.3071" y1="33.7804" x2="81.8457" y2="-52.3441" gradientUnits="userSpaceOnUse">
<stop stop-color="#C655F8"/>
<stop offset="1" stop-color="#2D4BF4"/>
</linearGradient>
<linearGradient id="paint7_linear_4_3" x1="46.307" y1="33.7806" x2="81.8456" y2="-52.344" gradientUnits="userSpaceOnUse">
<stop stop-color="#C655F8"/>
<stop offset="1" stop-color="#2D4BF4"/>
</linearGradient>
<linearGradient id="paint8_linear_4_3" x1="46.307" y1="33.7805" x2="81.8457" y2="-52.3441" gradientUnits="userSpaceOnUse">
<stop stop-color="#C655F8"/>
<stop offset="1" stop-color="#2D4BF4"/>
</linearGradient>
</defs>
</svg>
