<svg width="24" height="24" viewBox="0 0 24 24" fill="none" xmlns="http://www.w3.org/2000/svg">
<path d="M5.06216 6.54788L11.9703 13.6545L18.9508 6.61898C19.1174 6.45111 19.3148 6.31827 19.5317 6.22807C19.7487 6.13786 19.981 6.09205 20.2153 6.09325C20.4496 6.09445 20.6814 6.14264 20.8975 6.23506C21.1135 6.32748 21.3095 6.46233 21.4744 6.6319C21.6392 6.80148 21.7696 7.00246 21.8582 7.22337C21.9467 7.44428 21.9917 7.68079 21.9904 7.9194C21.9892 8.15802 21.9419 8.39406 21.851 8.61405C21.7602 8.83404 21.6278 9.03368 21.4612 9.20155L13.2033 17.5245C13.0369 17.6926 12.8395 17.8257 12.6225 17.916C12.4056 18.0064 12.1732 18.0522 11.9388 18.051C11.7044 18.0498 11.4726 18.0016 11.2565 17.909C11.0405 17.8165 10.8445 17.6814 10.6798 17.5116L2.50753 9.10452C2.34247 8.93507 2.21186 8.73413 2.12318 8.5132C2.0345 8.29228 1.98948 8.0557 1.9907 7.81702C1.99192 7.57833 2.03936 7.34223 2.1303 7.12222C2.22124 6.90222 2.3539 6.70262 2.52068 6.53487C3.22224 5.84592 4.36779 5.83355 5.06216 6.54788Z" fill="black"/>
</svg>
