<svg width="24" height="24" viewBox="0 0 24 24" fill="none" xmlns="http://www.w3.org/2000/svg">
<path d="M12.25 3.25C12.913 3.25 13.5489 3.51339 14.0178 3.98223C14.4866 4.45107 14.75 5.08696 14.75 5.75V10.75H9.75V5.75C9.75 5.08696 10.0134 4.45107 10.4822 3.98223C10.9511 3.51339 11.587 3.25 12.25 3.25ZM16 10.75V5.75C16 4.75544 15.6049 3.80161 14.9017 3.09835C14.1984 2.39509 13.2446 2 12.25 2C11.2554 2 10.3016 2.39509 9.59835 3.09835C8.89509 3.80161 8.5 4.75544 8.5 5.75V10.75C7.83696 10.75 7.20107 11.0134 6.73223 11.4822C6.26339 11.9511 6 12.587 6 13.25V19.5C6 20.163 6.26339 20.7989 6.73223 21.2678C7.20107 21.7366 7.83696 22 8.5 22H16C16.663 22 17.2989 21.7366 17.7678 21.2678C18.2366 20.7989 18.5 20.163 18.5 19.5V13.25C18.5 12.587 18.2366 11.9511 17.7678 11.4822C17.2989 11.0134 16.663 10.75 16 10.75Z" fill="black"/>
</svg>
