<svg width="24" height="24" viewBox="0 0 24 24" fill="none" xmlns="http://www.w3.org/2000/svg">
<path d="M6.5322 18.9351L13.6034 11.9907L6.5322 5.04626C6.36347 4.88056 6.22963 4.68385 6.13831 4.46735C6.047 4.25084 6 4.0188 6 3.78446C6 3.55012 6.047 3.31808 6.13831 3.10158C6.22963 2.88508 6.36347 2.68836 6.5322 2.52265C6.70093 2.35695 6.90124 2.22551 7.12169 2.13583C7.34214 2.04616 7.57842 2 7.81704 2C8.05566 2 8.29194 2.04616 8.51239 2.13583C8.73285 2.22551 8.93316 2.35695 9.10188 2.52265L17.467 10.7378C17.636 10.9034 17.77 11.1001 17.8615 11.3166C17.9529 11.5331 18 11.7652 18 11.9996C18 12.234 17.9529 12.4661 17.8615 12.6826C17.77 12.8992 17.636 13.0958 17.467 13.2614L9.10188 21.4766C8.93328 21.6425 8.73301 21.7741 8.51254 21.864C8.29207 21.9538 8.05573 22 7.81704 22C7.57836 22 7.34201 21.9538 7.12154 21.864C6.90107 21.7741 6.7008 21.6425 6.5322 21.4766C5.83966 20.7786 5.82144 19.6331 6.5322 18.9351Z" fill="black"/>
</svg>
