<svg width="24" height="24" viewBox="0 0 24 24" fill="none" xmlns="http://www.w3.org/2000/svg">
<path fill-rule="evenodd" clip-rule="evenodd" d="M8.4379 8.66664C7.49938 8.66664 6.73856 9.43196 6.73856 10.376V16.8718H4.69934V10.376C4.69934 8.29907 6.37315 6.61536 8.4379 6.61536H17.1895C17.7527 6.61536 18.2091 7.07455 18.2091 7.641C18.2091 8.20744 17.7527 8.66664 17.1895 8.66664H8.4379Z" fill="black"/>
<path fill-rule="evenodd" clip-rule="evenodd" d="M11.8272 2.35818C12.1936 1.9281 12.8373 1.8783 13.2649 2.24693L18.6178 6.86231C18.8438 7.05717 18.9739 7.34163 18.9739 7.64104C18.9739 7.94045 18.8438 8.22491 18.6178 8.41976L13.2649 13.0351C12.8373 13.4038 12.1936 13.354 11.8272 12.9239C11.4607 12.4938 11.5102 11.8463 11.9378 11.4777L16.3875 7.64104L11.9378 3.80438C11.5102 3.43574 11.4607 2.78826 11.8272 2.35818Z" fill="black"/>
<path fill-rule="evenodd" clip-rule="evenodd" d="M20.3333 16.8717V20.9743C20.3333 21.5407 19.8768 21.9999 19.3137 21.9999H3V19.9486H18.2941V16.8717H20.3333Z" fill="black"/>
</svg>
